<svg width="42" height="42" viewBox="0 0 42 42" fill="none" xmlns="http://www.w3.org/2000/svg">
<path opacity="0.35" d="M21.0019 36.955C29.8131 36.955 36.956 29.8121 36.956 21.001C36.956 12.1898 29.8131 5.04688 21.0019 5.04688C12.1907 5.04688 5.04785 12.1898 5.04785 21.001C5.04785 29.8121 12.1907 36.955 21.0019 36.955Z" fill="white"/>
<path opacity="0.75" d="M21 41.0001C32.0457 41.0001 41 32.0458 41 21.0001C41 9.95436 32.0457 1 21 1C9.9543 1 1 9.95436 1 21.0001C1 32.0458 9.9543 41.0001 21 41.0001Z" stroke="white" stroke-width="0.5" stroke-miterlimit="10"/>
<path opacity="0.87" d="M20.9998 25.1028C23.2655 25.1028 25.1022 23.2661 25.1022 21.0005C25.1022 18.7348 23.2655 16.8981 20.9998 16.8981C18.7342 16.8981 16.8975 18.7348 16.8975 21.0005C16.8975 23.2661 18.7342 25.1028 20.9998 25.1028Z" fill="white"/>
</svg>
