<svg width="40" height="40" viewBox="0 0 40 40" fill="none" xmlns="http://www.w3.org/2000/svg">
<g clip-path="url(#clip0_443_3465)">
<path d="M4.87109 6.04126H8.22864V14.3463H4.87109V6.04126Z" fill="#29659C"/>
<path d="M21.0664 14.3463L17.1455 6.04126H10.5732V14.3463H21.0664Z" fill="#29659C"/>
<path d="M33.7244 0.078125L21.6461 16.698V16.6901H0V25.7193H10.4388V27.9572H19.3732V25.7193H21.6458L35.1419 2.4295H37.6486V18.9633H32.2412V16.7306H29.8898V21.4737C29.8898 24.2612 32.1576 26.5286 34.9451 26.5286C37.7322 26.5286 40 24.2612 40 21.4737V0.078125L33.7244 0.078125Z" fill="#29659C"/>
<path d="M4.85748 30.2381C2.17896 30.2381 0 32.4171 0 35.0953C0 37.7735 2.17896 39.9525 4.85748 39.9525H25.4395C28.1177 39.9525 30.2969 37.7735 30.2969 35.0953C30.2969 32.4167 28.118 30.2378 25.4395 30.2378H4.85748V30.2381ZM5.60974 36.1997C4.95056 36.1997 4.46259 35.6611 4.4339 35.0242C4.40552 34.3891 4.99481 33.8486 5.60974 33.8486C6.26862 33.8486 6.75659 34.3873 6.78528 35.0242C6.81366 35.6589 6.22467 36.1997 5.60974 36.1997ZM10.4099 36.1997C9.75067 36.1997 9.2627 35.6611 9.23431 35.0242C9.20593 34.3891 9.79492 33.8486 10.4099 33.8486C11.069 33.8486 11.557 34.3873 11.5854 35.0242C11.6138 35.6589 11.0248 36.1997 10.4099 36.1997ZM15.2103 36.1997C14.5511 36.1997 14.0631 35.6611 14.0344 35.0242C14.006 34.3891 14.5953 33.8486 15.2103 33.8486C15.8691 33.8486 16.3571 34.3873 16.3858 35.0242C16.4142 35.6589 15.8252 36.1997 15.2103 36.1997ZM24.8108 33.8486C25.4697 33.8486 25.9579 34.3873 25.9863 35.0242C26.0147 35.6589 25.4257 36.1997 24.8108 36.1997C24.1516 36.1997 23.6636 35.6611 23.635 35.0242C23.6066 34.3891 24.1959 33.8486 24.8108 33.8486ZM21.1862 35.0242C21.2146 35.6589 20.6253 36.1997 20.0104 36.1997C19.3515 36.1997 18.8632 35.6611 18.8348 35.0242C18.8065 34.3891 19.3954 33.8486 20.0104 33.8486C20.6696 33.8486 21.1575 34.3873 21.1862 35.0242Z" fill="#29659C"/>
</g>
<defs>
<clipPath id="clip0_443_3465">
<rect width="40" height="40" fill="white"/>
</clipPath>
</defs>
</svg>
