<svg width="40" height="40" viewBox="0 0 40 40" fill="none" xmlns="http://www.w3.org/2000/svg">
<path d="M0 27.6112C0 27.9096 0.16 28.1862 0.42 28.3346L11.6666 34.7612V21.4212L0 14.5596V27.6112Z" fill="black"/>
<path d="M0 27.6112C0 27.9096 0.16 28.1862 0.42 28.3346L11.6666 34.7612V21.4212L0 14.5596V27.6112Z" fill="#29659C"/>
<path d="M13.333 21.5563V34.8896L39.4146 26.7396C39.7613 26.6313 39.9996 26.3096 39.9996 25.9446V13.1763L13.333 21.5563Z" fill="black"/>
<path d="M13.333 21.5563V34.8896L39.4146 26.7396C39.7613 26.6313 39.9996 26.3096 39.9996 25.9446V13.1763L13.333 21.5563Z" fill="#29659C"/>
<path d="M27.913 5.22118C27.7113 5.10618 27.4696 5.07782 27.2513 5.14954L1.15625 13.3045L12.6029 20.0379L39.2095 11.6763L27.913 5.22118ZM15.7146 17.2062C15.558 17.4662 15.2813 17.6112 14.9996 17.6112C14.853 17.6112 14.7046 17.5728 14.5713 17.4928L10.4046 14.9928C10.0096 14.7562 9.88125 14.2445 10.118 13.8495C10.3546 13.4545 10.8713 13.3295 11.2613 13.5628L15.428 16.0628C15.823 16.2995 15.9513 16.8112 15.7146 17.2062ZM20.7146 15.5412C20.558 15.8012 20.2813 15.9462 19.9996 15.9462C19.853 15.9462 19.7046 15.9078 19.5713 15.8278L15.4046 13.3278C15.0096 13.0895 14.8813 12.5762 15.118 12.1828C15.3563 11.7878 15.8713 11.6612 16.2613 11.8978L20.428 14.3978C20.823 14.6345 20.9513 15.1462 20.7146 15.5412ZM25.7146 13.8745C25.558 14.1345 25.2813 14.2795 24.9996 14.2795C24.853 14.2795 24.7046 14.2412 24.5713 14.1612L20.4046 11.6612C20.0096 11.4228 19.8813 10.9095 20.118 10.5162C20.358 10.1212 20.8713 9.99454 21.2613 10.2312L25.428 12.7312C25.823 12.9678 25.9513 13.4795 25.7146 13.8745ZM29.9996 12.6128C29.853 12.6128 29.7046 12.5745 29.5713 12.4945L25.4046 9.99446C25.0096 9.7561 24.8813 9.24282 25.118 8.84946C25.3563 8.45446 25.8713 8.32946 26.2613 8.56446L30.428 11.0645C30.823 11.3011 30.9513 11.8128 30.7146 12.2078C30.558 12.4678 30.2813 12.6128 29.9996 12.6128Z" fill="black"/>
<path d="M27.913 5.22118C27.7113 5.10618 27.4696 5.07782 27.2513 5.14954L1.15625 13.3045L12.6029 20.0379L39.2095 11.6763L27.913 5.22118ZM15.7146 17.2062C15.558 17.4662 15.2813 17.6112 14.9996 17.6112C14.853 17.6112 14.7046 17.5728 14.5713 17.4928L10.4046 14.9928C10.0096 14.7562 9.88125 14.2445 10.118 13.8495C10.3546 13.4545 10.8713 13.3295 11.2613 13.5628L15.428 16.0628C15.823 16.2995 15.9513 16.8112 15.7146 17.2062ZM20.7146 15.5412C20.558 15.8012 20.2813 15.9462 19.9996 15.9462C19.853 15.9462 19.7046 15.9078 19.5713 15.8278L15.4046 13.3278C15.0096 13.0895 14.8813 12.5762 15.118 12.1828C15.3563 11.7878 15.8713 11.6612 16.2613 11.8978L20.428 14.3978C20.823 14.6345 20.9513 15.1462 20.7146 15.5412ZM25.7146 13.8745C25.558 14.1345 25.2813 14.2795 24.9996 14.2795C24.853 14.2795 24.7046 14.2412 24.5713 14.1612L20.4046 11.6612C20.0096 11.4228 19.8813 10.9095 20.118 10.5162C20.358 10.1212 20.8713 9.99454 21.2613 10.2312L25.428 12.7312C25.823 12.9678 25.9513 13.4795 25.7146 13.8745ZM29.9996 12.6128C29.853 12.6128 29.7046 12.5745 29.5713 12.4945L25.4046 9.99446C25.0096 9.7561 24.8813 9.24282 25.118 8.84946C25.3563 8.45446 25.8713 8.32946 26.2613 8.56446L30.428 11.0645C30.823 11.3011 30.9513 11.8128 30.7146 12.2078C30.558 12.4678 30.2813 12.6128 29.9996 12.6128Z" fill="#29659C"/>
</svg>
