<svg width="40" height="40" viewBox="0 0 40 40" fill="none" xmlns="http://www.w3.org/2000/svg">
<g clip-path="url(#clip0_443_3481)">
<path d="M11.7969 30.4688V40H18.8281V30.4688H16.4844V32.8125H14.1406V30.4688H11.7969Z" fill="black"/>
<path d="M11.7969 30.4688V40H18.8281V30.4688H16.4844V32.8125H14.1406V30.4688H11.7969Z" fill="#29659C"/>
<path d="M25.8594 21.0938V28.125H30.5469V40H32.8906V21.0938H25.8594Z" fill="black"/>
<path d="M25.8594 21.0938V28.125H30.5469V40H32.8906V21.0938H25.8594Z" fill="#29659C"/>
<path d="M25.8594 32.8125H23.5156V30.4688H21.1719V40H28.2031V30.4688H25.8594V32.8125Z" fill="black"/>
<path d="M25.8594 32.8125H23.5156V30.4688H21.1719V40H28.2031V30.4688H25.8594V32.8125Z" fill="#29659C"/>
<path d="M16.4844 21.0938V28.125H23.5156V21.0938H21.1719V23.4375H18.8281V21.0938H16.4844Z" fill="black"/>
<path d="M16.4844 21.0938V28.125H23.5156V21.0938H21.1719V23.4375H18.8281V21.0938H16.4844Z" fill="#29659C"/>
<path d="M20 9.375C20.6472 9.375 21.1719 8.85033 21.1719 8.20312C21.1719 7.55592 20.6472 7.03125 20 7.03125C19.3528 7.03125 18.8281 7.55592 18.8281 8.20312C18.8281 8.85033 19.3528 9.375 20 9.375Z" fill="black"/>
<path d="M20 9.375C20.6472 9.375 21.1719 8.85033 21.1719 8.20312C21.1719 7.55592 20.6472 7.03125 20 7.03125C19.3528 7.03125 18.8281 7.55592 18.8281 8.20312C18.8281 8.85033 19.3528 9.375 20 9.375Z" fill="#29659C"/>
<path d="M20 0C9.01594 0 0 8.93672 0 19.9219V40H4.76562V19.9219C4.76562 16.662 5.78461 14.5137 5.91 14.0625H34.0899C34.2214 14.5354 35.2343 16.6792 35.2343 19.9219V40H39.9999V19.9219C40 8.93672 30.9841 0 20 0ZM20 11.7188C18.0614 11.7188 16.4844 10.1417 16.4844 8.20312C16.4844 6.26453 18.0614 4.6875 20 4.6875C21.9386 4.6875 23.5156 6.26453 23.5156 8.20312C23.5156 10.1417 21.9386 11.7188 20 11.7188Z" fill="black"/>
<path d="M20 0C9.01594 0 0 8.93672 0 19.9219V40H4.76562V19.9219C4.76562 16.662 5.78461 14.5137 5.91 14.0625H34.0899C34.2214 14.5354 35.2343 16.6792 35.2343 19.9219V40H39.9999V19.9219C40 8.93672 30.9841 0 20 0ZM20 11.7188C18.0614 11.7188 16.4844 10.1417 16.4844 8.20312C16.4844 6.26453 18.0614 4.6875 20 4.6875C21.9386 4.6875 23.5156 6.26453 23.5156 8.20312C23.5156 10.1417 21.9386 11.7188 20 11.7188Z" fill="#29659C"/>
<path d="M7.59469 16.4062C7.37812 17.1688 7.26109 17.9555 7.18945 18.75H32.8108C32.7391 17.9555 32.6221 17.1688 32.4055 16.4062H7.59469Z" fill="black"/>
<path d="M7.59469 16.4062C7.37812 17.1688 7.26109 17.9555 7.18945 18.75H32.8108C32.7391 17.9555 32.6221 17.1688 32.4055 16.4062H7.59469Z" fill="#29659C"/>
<path d="M9.45312 28.125H14.1406V21.0938H7.10938V40H9.45312V28.125Z" fill="black"/>
<path d="M9.45312 28.125H14.1406V21.0938H7.10938V40H9.45312V28.125Z" fill="#29659C"/>
</g>
<defs>
<clipPath id="clip0_443_3481">
<rect width="40" height="40" fill="white"/>
</clipPath>
</defs>
</svg>
