<svg width="40" height="48" viewBox="0 0 40 48" fill="none" xmlns="http://www.w3.org/2000/svg">
<path d="M2.2612 44.8672C2.03652 44.8672 1.82105 44.7779 1.66218 44.619C1.50331 44.46 1.41406 44.2444 1.41406 44.0196C1.41406 43.7949 1.50331 43.5793 1.66218 43.4203C1.82105 43.2614 2.03652 43.1721 2.2612 43.1721C2.44553 43.1678 2.62582 43.2264 2.77243 43.3383C2.90786 43.4358 3.00509 43.5775 3.04743 43.739H2.82042C2.77963 43.6321 2.70677 43.5405 2.61187 43.4768C2.50806 43.4079 2.3857 43.3725 2.2612 43.3752C2.17713 43.3728 2.09348 43.3879 2.01561 43.4197C1.93774 43.4515 1.86737 43.4993 1.80902 43.5599C1.68991 43.684 1.6234 43.8494 1.6234 44.0215C1.6234 44.1936 1.68991 44.359 1.80902 44.4831C1.86744 44.5436 1.93782 44.5913 2.01567 44.6231C2.09353 44.6549 2.17714 44.6701 2.2612 44.6678C2.38588 44.6698 2.50822 44.6337 2.61187 44.5644C2.70772 44.5016 2.78085 44.4097 2.82042 44.3022H3.04743C3.0052 44.4642 2.90798 44.6065 2.77243 44.7047C2.62534 44.8152 2.44509 44.8725 2.2612 44.8672Z" fill="white"/>
<path d="M3.71544 44.8389V43.4023H3.20605V43.1992H4.43523V43.4023H3.92584V44.8389H3.71544Z" fill="white"/>
<path d="M5.66439 43.3469C5.76222 43.4449 5.81717 43.5777 5.81717 43.7162C5.81717 43.8547 5.76222 43.9875 5.66439 44.0855C5.55375 44.1863 5.40786 44.2394 5.25835 44.2332H4.96306V44.8315H4.75635V43.1918H5.25835C5.33299 43.1889 5.40744 43.2012 5.47722 43.2278C5.547 43.2545 5.61067 43.295 5.66439 43.3469ZM5.51674 43.9507C5.5479 43.9211 5.57241 43.8853 5.58864 43.8455C5.60487 43.8057 5.61245 43.7629 5.61087 43.7199C5.6121 43.677 5.60436 43.6343 5.58816 43.5946C5.57195 43.5548 5.54762 43.5189 5.51674 43.4891C5.44617 43.427 5.35403 43.3952 5.2602 43.4005H4.96306V44.0412H5.25835C5.30529 44.0442 5.35235 44.0378 5.39674 44.0222C5.44113 44.0067 5.48194 43.9824 5.51674 43.9507Z" fill="white"/>
<path d="M6.90852 44.8666C6.79722 44.8694 6.68651 44.8495 6.58309 44.8083C6.47967 44.767 6.3857 44.7052 6.30685 44.6265C6.1496 44.466 6.06152 44.2502 6.06152 44.0255C6.06152 43.8007 6.1496 43.585 6.30685 43.4245C6.38517 43.3447 6.47892 43.2818 6.58238 43.2396C6.68583 43.1974 6.79681 43.1767 6.90852 43.1789C7.13319 43.1789 7.34867 43.2682 7.50754 43.4271C7.66641 43.5861 7.75566 43.8016 7.75566 44.0264C7.75566 44.2512 7.66641 44.4668 7.50754 44.6257C7.34867 44.7847 7.13319 44.874 6.90852 44.874V44.8666ZM6.90852 44.6635C6.99231 44.6659 7.07568 44.6507 7.15324 44.6189C7.23081 44.5871 7.30085 44.5394 7.35885 44.4788C7.47754 44.3545 7.54376 44.1891 7.54376 44.0172C7.54376 43.8452 7.47754 43.6799 7.35885 43.5556C7.29972 43.4964 7.22952 43.4494 7.15225 43.4174C7.07498 43.3854 6.99216 43.3689 6.90852 43.3689C6.82488 43.3689 6.74206 43.3854 6.66479 43.4174C6.58752 43.4494 6.51732 43.4964 6.45819 43.5556C6.3395 43.6799 6.27328 43.8452 6.27328 44.0172C6.27328 44.1891 6.3395 44.3545 6.45819 44.4788C6.51626 44.5393 6.58631 44.5869 6.66386 44.6187C6.74141 44.6505 6.82474 44.6658 6.90852 44.6635Z" fill="white"/>
<path d="M8.32958 44.8389H8.14502V43.1992H8.35911V44.4733L9.35574 43.1992H9.5403V44.8389H9.32621V43.5611L8.32958 44.8389Z" fill="white"/>
<path d="M10.3726 44.8389V43.4023H9.86133V43.1992H11.0924V43.4023H10.5811V44.8389H10.3726Z" fill="white"/>
<path d="M11.4229 44.8389V43.1992H12.377V43.4023H11.6388V43.899H12.2405V44.1022H11.6277V44.6358H12.366V44.8389H11.4229Z" fill="white"/>
<path d="M12.868 44.3662V43.1992H14.0067V44.8389H13.8V43.4023H13.0839V44.3994C13.0945 44.5261 13.0598 44.6523 12.9861 44.7558C12.9537 44.7925 12.9135 44.8215 12.8685 44.8407C12.8235 44.8598 12.7748 44.8687 12.7259 44.8666C12.6826 44.8671 12.6394 44.8641 12.5967 44.8574V44.6598C12.631 44.6637 12.6657 44.6637 12.7 44.6598C12.7254 44.662 12.7509 44.6571 12.7737 44.6457C12.7965 44.6343 12.8157 44.6168 12.8292 44.5952C12.8601 44.523 12.8734 44.4445 12.868 44.3662Z" fill="white"/>
<path d="M14.7243 43.8566H15.0289C15.1763 43.8488 15.3213 43.8969 15.4349 43.9914C15.4832 44.0371 15.5217 44.0922 15.548 44.1533C15.5743 44.2144 15.5879 44.2803 15.5879 44.3468C15.5879 44.4134 15.5743 44.4792 15.548 44.5403C15.5217 44.6014 15.4832 44.6565 15.4349 44.7023C15.3216 44.7974 15.1766 44.8462 15.0289 44.8389H14.5103V43.1992H14.7243V43.8566ZM14.7243 44.6395H15.0215C15.1151 44.6467 15.2082 44.6198 15.2836 44.5638C15.3127 44.5359 15.3359 44.5023 15.3517 44.4652C15.3676 44.4281 15.3758 44.3881 15.3758 44.3477C15.3758 44.3074 15.3676 44.2674 15.3517 44.2303C15.3359 44.1932 15.3127 44.1596 15.2836 44.1317C15.2082 44.0757 15.1151 44.0488 15.0215 44.056H14.7243V44.6395Z" fill="white"/>
<path d="M15.9482 44.8389V43.1992H16.1623V43.899H17.0611V43.1992H17.2752V44.8389H17.0611V44.1003H16.1623V44.8389H15.9482Z" fill="white"/>
<path d="M18.508 44.8668C18.3965 44.8688 18.2857 44.8479 18.1825 44.8053C18.0793 44.7628 17.986 44.6995 17.9082 44.6194C17.7496 44.4596 17.6606 44.2435 17.6606 44.0184C17.6606 43.7932 17.7496 43.5771 17.9082 43.4173C18.0686 43.26 18.2843 43.1719 18.509 43.1719C18.7336 43.1719 18.9493 43.26 19.1097 43.4173C19.2283 43.5362 19.3091 43.6876 19.3417 43.8525C19.3743 44.0173 19.3574 44.188 19.2929 44.3432C19.2285 44.4984 19.1196 44.6309 18.9799 44.7241C18.8402 44.8173 18.676 44.867 18.508 44.8668ZM18.508 44.6637C18.5918 44.6661 18.6752 44.6509 18.7528 44.6191C18.8303 44.5873 18.9004 44.5396 18.9584 44.4791C19.0771 44.3547 19.1433 44.1894 19.1433 44.0174C19.1433 43.8455 19.0771 43.6802 18.9584 43.5558C18.8994 43.4967 18.8293 43.4498 18.7522 43.4178C18.6751 43.3858 18.5924 43.3693 18.509 43.3693C18.4255 43.3693 18.3428 43.3858 18.2657 43.4178C18.1886 43.4498 18.1185 43.4967 18.0596 43.5558C17.9396 43.6795 17.8725 43.8451 17.8725 44.0174C17.8725 44.1898 17.9396 44.3554 18.0596 44.4791C18.1171 44.5397 18.1868 44.5874 18.2641 44.6192C18.3414 44.6511 18.4245 44.6662 18.508 44.6637Z" fill="white"/>
<path d="M19.6763 44.2903V44.0928H20.2632V44.2903H19.6763Z" fill="white"/>
<path d="M20.6987 43.1992H20.8943L21.5015 44.0154L22.1124 43.1992H22.297V44.8389H22.0847V43.563L21.4941 44.3588L20.9035 43.563V44.8389H20.6895L20.6987 43.1992Z" fill="white"/>
<path d="M23.5409 44.8666C23.3465 44.8653 23.1586 44.7967 23.009 44.6724C22.8595 44.5481 22.7575 44.3759 22.7205 44.185C22.6835 43.994 22.7137 43.7961 22.8059 43.6249C22.8982 43.4537 23.0469 43.3198 23.2267 43.2458C23.4065 43.1719 23.6064 43.1625 23.7923 43.2193C23.9783 43.2761 24.1388 43.3955 24.2468 43.5573C24.3547 43.7191 24.4032 43.9133 24.3843 44.1068C24.3653 44.3004 24.2799 44.4815 24.1426 44.6192C24.0645 44.6993 23.9708 44.7626 23.8674 44.8052C23.7639 44.8477 23.6528 44.8686 23.5409 44.8666ZM23.5409 44.6635C23.625 44.6659 23.7087 44.6508 23.7865 44.619C23.8644 44.5872 23.9348 44.5394 23.9931 44.4788C24.1118 44.3545 24.178 44.1892 24.178 44.0172C24.178 43.8453 24.1118 43.6799 23.9931 43.5556C23.9346 43.4953 23.8642 43.4477 23.7863 43.4159C23.7085 43.3842 23.625 43.3688 23.5409 43.3709C23.4575 43.3688 23.3744 43.3841 23.2972 43.4159C23.22 43.4477 23.1502 43.4953 23.0925 43.5556C22.9738 43.6799 22.9075 43.8453 22.9075 44.0172C22.9075 44.1892 22.9738 44.3545 23.0925 44.4788C23.15 44.5394 23.2197 44.5872 23.297 44.619C23.3743 44.6508 23.4574 44.666 23.5409 44.6635Z" fill="white"/>
<path d="M24.7759 44.8389V43.1992H24.9918V43.899H25.8888V43.1992H26.1029V44.8389H25.8888V44.1003H24.9918V44.8389H24.7759Z" fill="white"/>
<path d="M26.9259 44.8389V43.4023H26.4165V43.1992H27.6641V43.4023H27.1529V44.8389H26.9259Z" fill="white"/>
<path d="M27.6235 44.8389L28.3489 43.1992H28.5334L29.2606 44.8389H29.0299L28.8176 44.3607H28.0536L27.8487 44.8389H27.6235ZM28.4338 43.4891L28.1385 44.1668H28.7327L28.4338 43.4891Z" fill="white"/>
<path d="M31.3001 44.8389L30.5618 44.1003V44.8389H30.3403V44.1003L29.6021 44.8389H29.3179L30.1447 44.0228L29.3862 43.1992H29.6482L30.3477 43.9581V43.1992H30.5618V43.9581L31.2613 43.1992H31.5252L30.7667 44.0228L31.5917 44.8389H31.3001Z" fill="white"/>
<path d="M31.8462 44.8389V43.1992H32.0603V43.899H32.9572V43.1992H33.1732V44.8389H32.9572V44.1003H32.0603V44.8389H31.8462Z" fill="white"/>
<path d="M33.8855 43.8566H34.19C34.3375 43.8488 34.4825 43.8969 34.596 43.9914C34.6444 44.0371 34.6828 44.0922 34.7091 44.1533C34.7354 44.2144 34.749 44.2803 34.749 44.3468C34.749 44.4134 34.7354 44.4792 34.7091 44.5403C34.6828 44.6014 34.6444 44.6565 34.596 44.7023C34.4827 44.7974 34.3377 44.8462 34.19 44.8389H33.6714V43.1992H33.8855V43.8566ZM33.8855 44.6395H34.1826C34.2762 44.6464 34.3692 44.6195 34.4447 44.5638C34.4738 44.5359 34.497 44.5023 34.5129 44.4652C34.5287 44.4281 34.5369 44.3881 34.5369 44.3477C34.5369 44.3074 34.5287 44.2674 34.5129 44.2303C34.497 44.1932 34.4738 44.1596 34.4447 44.1317C34.3692 44.076 34.2762 44.0491 34.1826 44.056H33.8855V44.6395ZM34.9818 44.8389V43.1992H35.1959V44.8389H34.9818Z" fill="white"/>
<path d="M35.8828 44.8391H35.6982V43.1994H35.9142V44.4735L36.9108 43.1994H37.0954V44.8391H36.8831V43.5613L35.8828 44.8391ZM36.6783 42.9926C36.606 43.0567 36.5128 43.0921 36.4162 43.0921C36.3196 43.0921 36.2264 43.0567 36.1541 42.9926C36.1189 42.9585 36.0914 42.9173 36.0733 42.8718C36.0551 42.8263 36.0468 42.7775 36.0489 42.7285H36.2002C36.198 42.7894 36.2191 42.8489 36.2593 42.8947C36.2797 42.9154 36.3042 42.9317 36.3312 42.9425C36.3582 42.9533 36.3871 42.9584 36.4162 42.9575C36.445 42.9585 36.4737 42.9535 36.5004 42.9426C36.5271 42.9318 36.5512 42.9155 36.5712 42.8947C36.6114 42.8489 36.6326 42.7894 36.6303 42.7285H36.7816C36.7826 42.7761 36.7739 42.8233 36.7562 42.8674C36.7384 42.9115 36.7119 42.9516 36.6783 42.9852V42.9926Z" fill="white"/>
<path d="M13.8219 47.9727V46.5361H13.3125V46.333H14.5435V46.5361H14.0341V47.9727H13.8219Z" fill="white"/>
<path d="M15.7728 46.4736C15.8693 46.5722 15.9233 46.7048 15.9233 46.8429C15.9233 46.9809 15.8693 47.1135 15.7728 47.2122C15.6609 47.3119 15.5146 47.3642 15.3649 47.358H15.0788V47.9563H14.8647V46.3166H15.3649C15.4399 46.3146 15.5145 46.3275 15.5845 46.3544C15.6545 46.3814 15.7185 46.4218 15.7728 46.4736ZM15.6214 47.0792C15.6523 47.0494 15.6767 47.0135 15.6929 46.9737C15.7091 46.934 15.7168 46.8913 15.7156 46.8484C15.7172 46.8054 15.7096 46.7626 15.6934 46.7229C15.6771 46.6831 15.6526 46.6472 15.6214 46.6176C15.5869 46.5861 15.5464 46.5618 15.5024 46.5463C15.4583 46.5307 15.4115 46.5242 15.3649 46.5271H15.0788V47.1678H15.3649C15.4578 47.1756 15.5499 47.1464 15.6214 47.0866V47.0792Z" fill="white"/>
<path d="M16.2822 47.9727V46.333H17.2364V46.5361H16.4982V47.0273H17.0998V47.2304H16.4963V47.7659H17.2346V47.969L16.2822 47.9727Z" fill="white"/>
<path d="M18.3236 48.0007C18.1899 47.9995 18.0584 47.9667 17.9398 47.905C17.8213 47.8432 17.719 47.7543 17.6414 47.6454C17.5637 47.5365 17.513 47.4108 17.4932 47.2785C17.4734 47.1462 17.4852 47.0112 17.5277 46.8843C17.5701 46.7575 17.6419 46.6425 17.7372 46.5487C17.8325 46.455 17.9487 46.3852 18.0762 46.3449C18.2037 46.3047 18.3389 46.2952 18.4707 46.3173C18.6026 46.3393 18.7273 46.3923 18.8348 46.4718C18.9708 46.5692 19.0677 46.7119 19.108 46.8744H18.8828C18.8432 46.7668 18.7701 46.6749 18.6742 46.6122C18.5706 46.5428 18.4482 46.5067 18.3236 46.5087C18.2395 46.5064 18.1559 46.5216 18.078 46.5534C18.0002 46.5852 17.9298 46.6329 17.8714 46.6934C17.7519 46.8173 17.6851 46.9828 17.6851 47.155C17.6851 47.3272 17.7519 47.4927 17.8714 47.6167C17.9298 47.6772 18.0002 47.7248 18.078 47.7566C18.1559 47.7884 18.2395 47.8036 18.3236 47.8013C18.4482 47.8033 18.5706 47.7673 18.6742 47.6979C18.7701 47.6352 18.8432 47.5432 18.8828 47.4357H19.108C19.0672 47.5979 18.9705 47.7405 18.8348 47.8382C18.6877 47.9488 18.5075 48.0061 18.3236 48.0007Z" fill="white"/>
<path d="M19.7779 47.9727V46.5361H19.2686V46.333H20.4977V46.5361H19.9883V47.9727H19.7779Z" fill="white"/>
<path d="M22.7601 47.9728H22.5755L21.5734 46.695V47.9728H21.3574V46.3331H21.542L22.5386 47.609V46.3331H22.7509L22.7601 47.9728ZM23.5113 46.9313C23.4785 46.9646 23.4394 46.991 23.3963 47.0091C23.3532 47.0271 23.307 47.0364 23.2602 47.0364C23.2135 47.0364 23.1673 47.0271 23.1242 47.0091C23.0811 46.991 23.042 46.9646 23.0092 46.9313C22.9429 46.8643 22.9056 46.7737 22.9056 46.6793C22.9056 46.5849 22.9429 46.4943 23.0092 46.4272C23.0416 46.3911 23.081 46.362 23.125 46.3416C23.169 46.3212 23.2167 46.31 23.2651 46.3087C23.3136 46.3074 23.3618 46.316 23.4068 46.3341C23.4519 46.3521 23.4927 46.3791 23.527 46.4134C23.5612 46.4478 23.588 46.4888 23.6059 46.5339C23.6237 46.579 23.6321 46.6273 23.6307 46.6758C23.6292 46.7243 23.6178 46.7719 23.5973 46.8159C23.5768 46.8598 23.5475 46.8991 23.5113 46.9313ZM22.917 47.3006V47.1492H23.6035V47.3006H22.917ZM23.2602 46.8907C23.2874 46.8912 23.3144 46.886 23.3395 46.8755C23.3646 46.865 23.3873 46.8494 23.4061 46.8298C23.444 46.7911 23.4653 46.7391 23.4653 46.6848C23.4653 46.6306 23.444 46.5786 23.4061 46.5399C23.3873 46.5202 23.3646 46.5047 23.3395 46.4942C23.3144 46.4837 23.2874 46.4785 23.2602 46.4789C23.2336 46.4782 23.207 46.4833 23.1825 46.4938C23.158 46.5043 23.136 46.52 23.1181 46.5399C23.0802 46.5786 23.0589 46.6306 23.0589 46.6848C23.0589 46.7391 23.0802 46.7911 23.1181 46.8298C23.1365 46.8486 23.1587 46.8633 23.1832 46.8729C23.2077 46.8824 23.234 46.8866 23.2602 46.8852V46.8907Z" fill="white"/>
<path d="M24.1134 47.9727V46.5287H23.7886L23.951 46.333H24.3035V47.9727H24.1134Z" fill="white"/>
<path d="M24.9269 47.9727V46.5287H24.6113L24.7719 46.333H25.1263V47.9727H24.9269Z" fill="white"/>
<path d="M13.6207 36.2366C13.3932 35.8536 13.0385 35.5628 12.6185 35.4149C12.0725 35.1965 11.4881 35.0904 10.9002 35.1028C9.91589 35.1028 9.1272 35.3207 8.53414 35.7565C8.25771 35.9384 8.03079 36.1861 7.87376 36.4775C7.71673 36.7689 7.63452 37.0947 7.63452 37.4257C7.63452 37.7567 7.71673 38.0826 7.87376 38.3739C8.03079 38.6653 8.25771 38.9131 8.53414 39.095C9.13397 39.5289 9.92573 39.7468 10.9039 39.7468C11.4705 39.7574 12.0341 39.6609 12.565 39.4624C12.9836 39.3204 13.3479 39.052 13.6077 38.6943H14.5416C14.4299 38.9988 14.2579 39.2775 14.0359 39.5139C13.8139 39.7503 13.5465 39.9394 13.2497 40.0699C12.51 40.4163 11.7 40.5857 10.8836 40.5648C9.6249 40.5648 8.61842 40.2853 7.86418 39.7265C7.51129 39.456 7.22538 39.1078 7.02861 38.709C6.83184 38.3102 6.72949 37.8714 6.72949 37.4266C6.72949 36.9819 6.83184 36.5431 7.02861 36.1443C7.22538 35.7454 7.51129 35.3973 7.86418 35.1268C8.61965 34.5667 9.62121 34.2867 10.8688 34.2867C11.7071 34.2608 12.5391 34.4382 13.294 34.8037C13.9547 35.1471 14.3718 35.6254 14.5398 36.2366H13.6207Z" fill="white"/>
<path d="M23.1591 40.4005H22.2529V36.1535L20.0049 40.4005H18.4989L16.2509 36.1535V40.4005H15.3447V34.4492H16.2878L19.0341 39.6748H19.4697L22.2178 34.4492H23.1591V40.4005Z" fill="white"/>
<path d="M31.7742 34.4492V35.1749H28.3192V40.4005H27.413V35.1749H23.958V34.4492H31.7742Z" fill="white"/>
<path d="M29.7626 40.4005V38.0295H29.1406L29.5522 37.4756H30.3237V40.4041L29.7626 40.4005Z" fill="white"/>
<path d="M31.2096 40.4005V38.0295H30.5913L31.0029 37.4756H31.7743V40.4041L31.2096 40.4005Z" fill="white"/>
<path d="M0.00927734 26.4738C0.00927734 26.4738 11.2675 27.4709 20.3406 19.926L19.1483 18.7553L19.9438 18.4414L21.8115 19.1653L28.7529 14.7724L25.3459 11.3896L26.4625 10.4885L32.8704 12.4975L37.4457 9.70191C37.4457 9.70191 39.1326 8.89314 39.893 9.54496C39.893 9.54496 40.3138 10.3168 39.4464 11.3305C39.4464 11.3305 37.9699 12.2944 37.0102 12.8742C37.0102 12.8742 29.8565 17.1932 26.2188 19.1431C26.2244 19.145 13.2995 28.1929 0.00927734 26.4738Z" fill="white"/>
<path d="M30.6782 17.3172L34.4359 14.9961L31.697 19.5921L29.9492 20.2309L30.6782 17.3172Z" fill="white"/>
<mask id="mask0_562_374" style="mask-type:luminance" maskUnits="userSpaceOnUse" x="-2" y="-2" width="23" height="28">
<path d="M18.126 19.7949L16.8341 18.2254L19.8959 16.7648L20.863 12.2611L20.6028 3.04522L11.133 -1.90527L3.78188 7.31065L-1.49658 15.5147L-0.719578 25.4618C-0.719578 25.4618 10.869 26.0693 18.126 19.7949Z" fill="white"/>
</mask>
<g mask="url(#mask0_562_374)">
<path d="M12.8328 14.5466V0.452148L6.84375 5.44141V9.41879L12.8328 14.5466Z" fill="white"/>
<path d="M0 25.65C1.84561 25.65 4.19324 25.6371 5.98902 25.0813V10.5732L0 15.6678V25.65Z" fill="white"/>
<path d="M6.84521 24.8966V10.5732L12.8342 15.6678V23.0113C10.9492 23.9505 8.92811 24.5867 6.84521 24.8966Z" fill="#29659C"/>
<path d="M13.689 17.0082V0L19.6374 4.9431V17.2981L17.1643 18.2213L18.5466 19.7373C18.5466 19.7373 15.4275 22.2523 13.689 22.8173V17.0082Z" fill="#29659C"/>
</g>
</svg>
